<svg width="76" height="100" xmlns="http://www.w3.org/2000/svg">

 <g>
  <title>background</title>
  <rect fill="none" id="canvas_background" height="102" width="78" y="-1" x="-1"/>
 </g>
 <g>
  <title>Layer 1</title>
  <path id="svg_1" d="m47.816,18.938a3.876,3.876 0 0 1 -3.601,-2.479a3.827,3.827 0 0 1 0.083,-2.945a3.83,3.83 0 0 1 2.143,-2.023c0.44,-0.168 0.902,-0.254 1.371,-0.254c1.586,0 3.033,0.996 3.599,2.479a3.825,3.825 0 0 1 -0.084,2.946a3.828,3.828 0 0 1 -2.142,2.024a3.82,3.82 0 0 1 -1.369,0.252z" fill="#FFF"/>
  <path id="svg_2" d="m47.813,11.612a3.475,3.475 0 1 1 -1.236,0.229a3.46,3.46 0 0 1 1.236,-0.229m0.001,-0.75a4.224,4.224 0 0 0 -3.857,2.498a4.194,4.194 0 0 0 -0.092,3.232a4.25,4.25 0 0 0 3.95,2.721a4.22,4.22 0 0 0 1.502,-0.277a4.199,4.199 0 0 0 2.352,-2.222a4.2,4.2 0 0 0 0.092,-3.233a4.245,4.245 0 0 0 -3.947,-2.719z" fill="#A8721B"/>
  <path id="svg_3" d="m29.568,30.965c0.002,-0.443 0.006,-0.983 0.016,-1.583l-9.09,0a1,1 0 1 0 0,2l8.673,0l0.401,-0.417zm-0.798,-6.583l-12.276,0a1,1 0 1 0 0,2l12.174,0c0.026,-0.653 0.059,-1.323 0.102,-2zm26.462,27.414c-1.991,0 -3.084,-2.089 -3.129,-2.178l-3.045,-7.496l-4.091,-5.245l-0.542,4.352a0.373,0.373 0 0 1 -0.08,0.189l-6.285,7.771a0.396,0.396 0 0 1 -0.082,0.076c-0.042,0.026 -1.039,0.688 -2.123,0.689c-0.605,0 -1.122,-0.202 -1.535,-0.6c-1.406,-1.351 -0.563,-3.299 -0.526,-3.381a0.352,0.352 0 0 1 0.073,-0.106l5.827,-6.048c-0.006,-1.401 0.007,-11.177 1.207,-14.052c0.435,-1.04 0.533,-1.853 0.277,-2.287a0.713,0.713 0 0 0 -0.402,-0.32l-4.316,2.301l-2.88,4.209c-0.028,0.038 -0.511,0.68 -1.344,0.68c-0.352,0 -0.708,-0.114 -1.061,-0.341a2.272,2.272 0 0 1 -1.066,-2.339a0.372,0.372 0 0 1 0.066,-0.146l4.061,-5.41a0.371,0.371 0 0 1 0.083,-0.08c0.203,-0.144 4.995,-3.522 8.314,-3.522c0.354,0 0.688,0.039 0.987,0.116c0.688,0.178 6.748,1.773 7.745,3.262c0.772,1.151 2.299,2.725 2.569,3l4.623,2.375c0.039,0.017 1.4,0.628 1.762,1.657c0.148,0.427 0.113,0.856 -0.106,1.278c-0.389,0.744 -1.043,1.154 -1.842,1.154c-0.478,0 -0.837,-0.143 -0.876,-0.159l-4.764,-2.173a0.377,0.377 0 0 1 -0.105,-0.072l-3.348,-3.272c-0.924,2.364 -1.969,5.599 -1.707,6.287c0.324,0.85 3.982,5.64 6.361,8.65l3.527,8.247c0.023,0.064 0.357,1.053 -0.123,1.89c-0.295,0.515 -0.816,0.847 -1.552,0.989a2.792,2.792 0 0 1 -0.552,0.055z" fill="#FFF"/>
  <path id="svg_4" d="m42.633,18.888c0.315,0 0.615,0.032 0.895,0.104c0.867,0.224 6.652,1.802 7.527,3.107c0.875,1.304 2.654,3.097 2.654,3.097l4.678,2.403s2.243,0.99 1.493,2.428c-0.403,0.774 -1.024,0.953 -1.51,0.953c-0.416,0 -0.733,-0.131 -0.733,-0.131l-4.75,-2.167l-3.75,-3.666s-2.38,5.871 -1.916,7.083c0.461,1.211 6.416,8.749 6.416,8.749l3.479,8.162s0.683,1.959 -1.4,2.363a2.532,2.532 0 0 1 -0.48,0.047c-1.784,0 -2.795,-1.975 -2.795,-1.975l-3.053,-7.514l-4.678,-6l-0.654,5.25l-6.284,7.771s-0.931,0.626 -1.913,0.626c-0.441,0 -0.893,-0.126 -1.275,-0.493c-1.232,-1.185 -0.443,-2.958 -0.443,-2.958l5.933,-6.156s-0.074,-11.061 1.179,-14.059c1.252,-3 -0.529,-3.146 -0.529,-3.146l-4.517,2.407l-2.933,4.285s-0.381,0.517 -1.034,0.517c-0.249,0 -0.536,-0.074 -0.857,-0.281c-1.165,-0.75 -0.903,-1.943 -0.903,-1.943l4.061,-5.41c-0.005,0 4.854,-3.453 8.092,-3.453m0,-0.75c-3.438,0 -8.325,3.445 -8.532,3.592a0.764,0.764 0 0 0 -0.165,0.161l-4.061,5.41a0.76,0.76 0 0 0 -0.133,0.29c-0.139,0.632 -0.036,1.92 1.23,2.734c0.413,0.266 0.838,0.4 1.263,0.4c1.003,0 1.576,-0.737 1.638,-0.821l2.844,-4.155l4.064,-2.166a0.333,0.333 0 0 1 0.078,0.098c0.068,0.122 0.246,0.624 -0.305,1.943c-1.191,2.852 -1.24,12.192 -1.236,14.046l-5.722,5.938a0.76,0.76 0 0 0 -0.146,0.217c-0.041,0.092 -0.984,2.273 0.609,3.804c0.479,0.46 1.1,0.702 1.795,0.702c1.177,0 2.217,-0.678 2.332,-0.754a0.73,0.73 0 0 0 0.164,-0.15l6.284,-7.771a0.729,0.729 0 0 0 0.161,-0.379l0.432,-3.453l3.5,4.49l3.015,7.418c0.008,0.021 0.017,0.039 0.026,0.06c0.051,0.097 1.244,2.382 3.463,2.382c0.205,0 0.416,-0.021 0.625,-0.061c1.053,-0.205 1.563,-0.75 1.805,-1.172c0.556,-0.965 0.203,-2.055 0.16,-2.176a0.924,0.924 0 0 0 -0.019,-0.047l-3.478,-8.162a0.781,0.781 0 0 0 -0.102,-0.171c-2.853,-3.61 -6.031,-7.835 -6.306,-8.552c-0.158,-0.554 0.597,-3.097 1.501,-5.487l2.941,2.874a0.74,0.74 0 0 0 0.213,0.146l4.75,2.167c0.072,0.03 0.496,0.198 1.045,0.198c0.945,0 1.718,-0.481 2.175,-1.356a1.94,1.94 0 0 0 0.128,-1.575c-0.406,-1.161 -1.822,-1.814 -1.982,-1.886l-4.53,-2.328c-0.353,-0.362 -1.763,-1.829 -2.483,-2.903c-1.052,-1.569 -6.818,-3.121 -7.963,-3.416a4.265,4.265 0 0 0 -1.078,-0.129z" fill="#A8721B"/>
 </g>
</svg>