<svg width="76" height="100" xmlns="http://www.w3.org/2000/svg">

 <g>
  <title>background</title>
  <rect fill="none" id="canvas_background" height="102" width="78" y="-1" x="-1"/>
 </g>
 <g>
  <title>Layer 1</title>
  <g id="svg_1" fill="#FFF">
   <circle id="svg_2" r="3.475" cy="14.588" cx="36.368"/>
   <path id="svg_3" d="m46.255,29.689s1.124,1.756 -0.042,2.464s-2.163,0.038 -2.163,0.038s-3.149,-4.121 -3.961,-5.642c-0.448,-0.838 -1.373,-3.546 -1.373,-3.546s-0.198,7.218 0.265,8.431c0.463,1.211 4.418,8.75 4.418,8.75l3.27,7.961s1.088,2.234 -1.245,3.018s-3.196,-1.904 -3.196,-1.904l-3.078,-7.99l-3.679,-7.134l-1.349,7.761l-2.002,7.453s-0.529,1.814 -2.737,1.814s-2.05,-1.698 -2.05,-1.698l2.05,-8.397s1.949,-11.904 1.949,-15.154c0,-1.069 -0.47,-3.507 -0.47,-3.507c-0.688,0.688 -1.798,2.021 -2.181,3.288c-0.377,1.242 -0.61,6.156 -0.61,6.156s-0.271,1.221 -1.729,1.221s-1.487,-1.842 -1.487,-1.842s0.573,-4.646 1.036,-6.272c0.59,-2.07 2.607,-6.286 5.85,-6.318c0.896,-0.008 6.893,0.019 8.074,1.054c1.185,1.033 2.063,3.885 2.902,5.318c0.661,1.131 3.538,4.677 3.538,4.677z"/>
  </g>
  <g id="svg_4" fill="#A8721B">
   <path id="svg_5" d="m36.366,11.113a3.477,3.477 0 1 1 0.005,6.95a3.476,3.476 0 1 1 -0.005,-6.95m0.001,-0.75a4.229,4.229 0 0 0 -3.423,6.7a4.239,4.239 0 0 0 3.428,1.75c0.893,0 1.748,-0.277 2.474,-0.802a4.196,4.196 0 0 0 1.694,-2.753a4.185,4.185 0 0 0 -0.748,-3.146a4.238,4.238 0 0 0 -3.425,-1.749z"/>
   <path id="svg_6" d="m31.956,18.636c1.392,0 6.746,0.083 7.854,1.055c1.185,1.033 2.063,3.885 2.902,5.318c0.664,1.134 3.541,4.681 3.541,4.681s1.124,1.756 -0.042,2.464a2.12,2.12 0 0 1 -1.114,0.325c-0.621,0 -1.049,-0.287 -1.049,-0.287s-3.15,-4.121 -3.961,-5.642c-0.449,-0.838 -1.373,-3.546 -1.373,-3.546s-0.199,7.218 0.264,8.431c0.463,1.211 4.418,8.749 4.418,8.749l3.271,7.963s1.088,2.233 -1.245,3.017a2.527,2.527 0 0 1 -0.818,0.144c-1.721,0 -2.379,-2.048 -2.379,-2.048l-3.076,-7.989l-3.681,-7.135l-1.349,7.762l-2.002,7.451s-0.529,1.815 -2.737,1.815s-2.05,-1.698 -2.05,-1.698l2.05,-8.396s1.949,-11.905 1.949,-15.155c0,-1.069 -0.47,-3.507 -0.47,-3.507c-0.688,0.688 -1.798,2.021 -2.181,3.288c-0.377,1.242 -0.61,6.156 -0.61,6.156s-0.271,1.221 -1.729,1.221s-1.487,-1.842 -1.487,-1.842s0.573,-4.646 1.036,-6.272c0.59,-2.07 2.607,-6.286 5.85,-6.318c0.054,-0.005 0.128,-0.005 0.218,-0.005m0,-0.75l-0.226,0.001c-3.656,0.036 -5.893,4.505 -6.564,6.863c-0.473,1.663 -1.035,6.193 -1.059,6.386a0.717,0.717 0 0 0 -0.006,0.104c0.015,0.893 0.5,2.58 2.237,2.58c1.629,0 2.322,-1.183 2.462,-1.808a0.787,0.787 0 0 0 0.017,-0.128c0.063,-1.341 0.292,-5.028 0.579,-5.974c0.178,-0.588 0.562,-1.232 0.991,-1.812c0.104,0.679 0.191,1.389 0.191,1.813c0,3.077 -1.829,14.356 -1.935,15.006l-2.043,8.369a0.737,0.737 0 0 0 -0.019,0.108c-0.009,0.098 -0.07,0.976 0.583,1.691c0.499,0.547 1.243,0.825 2.214,0.825c2.191,0 3.22,-1.541 3.457,-2.354l2.007,-7.469a0.703,0.703 0 0 0 0.015,-0.066l0.966,-5.561l2.638,5.113l3.063,7.951c0.021,0.065 0.838,2.527 3.078,2.527c0.342,0 0.698,-0.062 1.059,-0.182c1.117,-0.375 1.602,-1.045 1.811,-1.542c0.491,-1.175 -0.063,-2.381 -0.13,-2.515l-3.25,-7.918l-0.028,-0.063c-1.096,-2.086 -4.016,-7.709 -4.383,-8.668c-0.16,-0.424 -0.242,-2.169 -0.257,-4.271a0.04,0.04 0 0 1 0.005,0.009c0.829,1.555 3.896,5.572 4.026,5.743c0.05,0.064 0.108,0.121 0.178,0.166c0.063,0.043 0.64,0.415 1.468,0.415c0.522,0 1.028,-0.146 1.504,-0.435a1.78,1.78 0 0 0 0.836,-1.144c0.248,-1.071 -0.469,-2.236 -0.553,-2.365c-0.016,-0.023 -0.031,-0.046 -0.05,-0.068c-0.79,-0.974 -2.955,-3.697 -3.476,-4.587c-0.271,-0.461 -0.557,-1.107 -0.86,-1.793c-0.638,-1.439 -1.298,-2.928 -2.196,-3.712c-1.232,-1.074 -5.76,-1.235 -8.35,-1.235z"/>
  </g>
 </g>
</svg>