<svg width="76" height="100" xmlns="http://www.w3.org/2000/svg">

 <g>
  <title>background</title>
  <rect fill="none" id="canvas_background" height="102" width="78" y="-1" x="-1"/>
 </g>
 <g>
  <title>Layer 1</title>
  <path id="svg_1" d="m53.707,24.263a3.857,3.857 0 0 1 -3.852,-3.852c0,-2.123 1.729,-3.85 3.852,-3.85s3.852,1.727 3.852,3.85a3.857,3.857 0 0 1 -3.852,3.852z" fill="#FFF"/>
  <path id="svg_2" d="m53.707,16.937a3.478,3.478 0 0 1 3.477,3.475a3.478,3.478 0 0 1 -6.954,0a3.476,3.476 0 0 1 3.477,-3.475m0,-0.75a4.232,4.232 0 0 0 -4.227,4.225c0,2.33 1.896,4.227 4.227,4.227s4.227,-1.896 4.227,-4.227a4.231,4.231 0 0 0 -4.227,-4.225z" fill="#A8721B"/>
  <path id="svg_3" d="m51.066,52.996c-2.059,0 -2.582,-1.479 -2.604,-1.54a0.388,0.388 0 0 1 -0.014,-0.188l1.378,-7.688l-4.229,-4.021l-3.058,5.023a0.373,0.373 0 0 1 -0.209,0.163c-0.291,0.09 -7.133,2.213 -7.696,2.364a1.019,1.019 0 0 1 -0.252,0.033c-0.744,0 -1.466,-0.846 -1.839,-2.153c-0.27,-0.947 -0.062,-1.603 0.16,-1.982a1.815,1.815 0 0 1 1.149,-0.862l5.569,-1.362c0.313,-1.679 2.165,-11.141 4.294,-13.382c1.187,-1.247 1.457,-1.852 1.519,-2.088l-4.676,-0.219l-5.083,3.35c-0.088,0.047 -0.53,0.258 -1.097,0.258c-0.678,0 -1.246,-0.303 -1.642,-0.876c-0.814,-1.18 -0.167,-2.201 0.29,-2.577l6.036,-4.143a0.375,0.375 0 0 1 0.211,-0.065l0.011,0c1.429,0.04 8.597,0.257 9.444,0.62c0.873,0.374 5.371,4.594 5.756,6.269c0.268,1.157 1.201,2.566 1.56,3.079l5.295,-1.239l-0.001,0c-0.009,0 0.243,-0.093 0.575,-0.093c0.392,0 1.104,0.137 1.489,1.052c0.171,0.407 0.18,0.816 0.021,1.183c-0.298,0.7 -1.072,1.015 -1.16,1.048l-7.469,1.782a0.376,0.376 0 0 1 -0.374,-0.124l-2.237,-2.665c-1.524,1.239 -3.463,3.114 -3.463,3.837c0,0.691 3.172,3.752 6.108,6.191a0.372,0.372 0 0 1 0.13,0.348l-1.413,8.716c-0.121,0.678 -0.796,1.951 -2.479,1.951z" fill="#FFF"/>
  <path id="svg_4" d="m39.273,21.413s8.481,0.236 9.309,0.59c0.824,0.354 5.186,4.477 5.538,6.008c0.353,1.531 1.767,3.417 1.767,3.417l5.538,-1.296s0.209,-0.083 0.488,-0.083c0.369,0 0.858,0.146 1.144,0.822c0.5,1.188 -0.927,1.735 -0.927,1.735l-7.421,1.767l-2.475,-2.945s-3.889,3.063 -3.889,4.358s6.242,6.479 6.242,6.479l-1.413,8.715s-0.297,1.641 -2.108,1.641c-1.813,0 -2.25,-1.286 -2.25,-1.286l1.414,-7.89l-4.713,-4.479l-3.297,5.421s-7.122,2.209 -7.686,2.362a0.535,0.535 0 0 1 -0.154,0.021c-0.532,0 -1.142,-0.701 -1.478,-1.883c-0.369,-1.297 0.225,-2.182 1.037,-2.38l5.805,-1.42s2.003,-11.074 4.239,-13.43c2.238,-2.356 1.531,-2.709 1.531,-2.709l-5.063,-0.236l-5.184,3.416s-0.396,0.196 -0.891,0.196c-0.434,0 -0.944,-0.15 -1.333,-0.714c-0.834,-1.208 0.22,-2.074 0.22,-2.074l6.01,-4.123m0,-0.75a0.75,0.75 0 0 0 -0.424,0.132l-6.009,4.123a0.64,0.64 0 0 0 -0.052,0.039c-0.638,0.524 -1.26,1.776 -0.361,3.079c0.462,0.67 1.155,1.038 1.95,1.038c0.652,0 1.167,-0.247 1.224,-0.274a0.775,0.775 0 0 0 0.079,-0.046l4.98,-3.281l3.993,0.187c-0.19,0.306 -0.547,0.781 -1.213,1.481c-2.127,2.239 -3.899,10.979 -4.346,13.333l-5.333,1.305a2.195,2.195 0 0 0 -1.384,1.039c-0.366,0.629 -0.436,1.437 -0.197,2.272c0.426,1.497 1.269,2.429 2.199,2.429c0.119,0 0.237,-0.017 0.351,-0.047c0.57,-0.154 7.417,-2.279 7.708,-2.369a0.745,0.745 0 0 0 0.418,-0.326l2.814,-4.627l3.746,3.562l-1.343,7.491a0.754,0.754 0 0 0 0.028,0.374c0.023,0.073 0.637,1.795 2.959,1.795c1.93,0 2.707,-1.476 2.848,-2.256l1.416,-8.729a0.75,0.75 0 0 0 -0.262,-0.697c-2.703,-2.244 -5.729,-5.125 -5.969,-5.924c0.081,-0.502 1.426,-1.947 3.034,-3.29l2,2.381a0.75,0.75 0 0 0 0.748,0.247l7.421,-1.767c0.032,-0.008 0.064,-0.018 0.096,-0.029c0.104,-0.04 1.013,-0.409 1.371,-1.251c0.196,-0.463 0.188,-0.973 -0.021,-1.476c-0.342,-0.814 -1.01,-1.281 -1.832,-1.281c-0.319,0 -0.577,0.071 -0.699,0.112l-5.006,1.171c-0.405,-0.601 -1.135,-1.773 -1.357,-2.739c-0.42,-1.827 -4.965,-6.097 -5.974,-6.529c-0.862,-0.37 -6.989,-0.578 -9.582,-0.65c-0.003,-0.002 -0.011,-0.002 -0.019,-0.002z" fill="#A8721B"/>
  <path id="svg_5" d="m30.272,42.507l-1.811,0a1,1 0 1 0 0,2l1.92,0l-0.109,-2zm7.318,-3.45l0.044,-0.217l-13.172,0a1,1 0 1 0 0,2l6.11,0l7.018,-1.783zm0.867,-3.883l-16.995,0a1,1 0 1 0 0,2l16.525,0c0.141,-0.634 0.298,-1.307 0.47,-2zm1.029,-3.667l-21.024,0a1,1 0 1 0 0,2l20.433,0a48.1,48.1 0 0 1 0.591,-2zm0.578,-1.666c0.271,-0.721 0.558,-1.398 0.857,-2l-0.675,0l-3.034,2l2.852,0zm-8.176,-2l-16.426,0a1,1 0 1 0 0,2l17.972,0l-1.546,-2zm-2.217,-2.869l1.164,-0.798l-16.373,0a1,1 0 1 0 0,2l16.139,0l-0.93,-1.202z" fill="#FFF"/>
 </g>
</svg>