<?xml version="1.0" standalone="no"?><!DOCTYPE svg PUBLIC "-//W3C//DTD SVG 1.1//EN" "http://www.w3.org/Graphics/SVG/1.1/DTD/svg11.dtd"><svg t="1545812850464" class="icon" style="" viewBox="0 0 1024 1024" version="1.1" xmlns="http://www.w3.org/2000/svg" p-id="2295" data-darkreader-inline-fill="" xmlns:xlink="http://www.w3.org/1999/xlink" width="200" height="200"><defs><style type="text/css">[data-darkreader-inline-fill] { fill: var(--darkreader-inline-fill)  !important; }
</style></defs><path d="M823.466667 110.933333H200.533333c-17.066667 0-29.866667 12.8-29.866666 29.866667v738.133333c0 17.066667 12.8 34.133333 34.133333 34.133334h422.4c17.066667 0 34.133333-12.8 34.133333-34.133334 0-17.066667-12.8-34.133333-34.133333-34.133333H234.666667V174.933333h558.933333v708.266667c0 17.066667 12.8 34.133333 34.133333 34.133333 17.066667 0 34.133333-12.8 34.133334-34.133333V140.8c-8.533333-17.066667-21.333333-29.866667-38.4-29.866667z" fill="#e6ebff" p-id="2296" data-darkreader-inline-fill="" style="--darkreader-inline-fill:#b6c4ff;"></path><path d="M678.4 482.133333h-136.533333V345.6c0-17.066667-12.8-34.133333-34.133334-34.133333-17.066667 0-34.133333 12.8-34.133333 34.133333v136.533333h-128c-17.066667 0-34.133333 12.8-34.133333 34.133334 0 17.066667 12.8 34.133333 34.133333 34.133333h128v128c0 17.066667 12.8 34.133333 34.133333 34.133333 17.066667 0 34.133333-12.8 34.133334-34.133333v-128h136.533333c17.066667 0 34.133333-12.8 34.133333-34.133333-4.266667-21.333333-17.066667-34.133333-34.133333-34.133334z" fill="#e6ebff" p-id="2297" data-darkreader-inline-fill="" style="--darkreader-inline-fill:#b6c4ff;"></path></svg>